<?xml version="1.0" standalone="no"?>
<!DOCTYPE svg PUBLIC "-//W3C//DTD SVG 20010904//EN"
 "http://www.w3.org/TR/2001/REC-SVG-20010904/DTD/svg10.dtd">
<svg version="1.0" xmlns="http://www.w3.org/2000/svg"
 width="700.000000pt" height="700.000000pt" viewBox="0 0 700.000000 700.000000"
 preserveAspectRatio="xMidYMid meet">
<metadata>
Created by potrace 1.14, written by Peter Selinger 2001-2017
</metadata>
<g transform="translate(0.000000,700.000000) scale(0.100000,-0.100000)"
fill="#000000" stroke="none">
<path d="M0 3500 l0 -3500 3500 0 3500 0 0 3500 0 3500 -3500 0 -3500 0 0
-3500z m4874 2495 c519 -68 975 -349 1259 -776 412 -620 369 -1448 -105 -2012
l-60 -72 6 -105 c20 -329 105 -594 238 -736 l62 -66 -149 4 c-136 4 -159 7
-242 36 -178 61 -375 179 -545 326 l-87 75 -56 -19 c-158 -54 -510 -106 -572
-84 -15 5 -34 22 -43 37 -13 24 -13 30 0 54 8 14 22 29 30 34 8 4 78 12 155
18 186 14 334 48 492 112 32 13 32 13 115 -67 148 -141 321 -259 471 -319 45
-19 94 -37 109 -40 l27 -7 -30 72 c-56 133 -102 353 -114 540 -3 52 -8 116
-11 141 -4 46 -3 48 67 130 201 233 329 519 370 824 18 139 6 395 -24 525 -47
198 -111 351 -211 505 -344 529 -973 815 -1607 731 -193 -26 -341 -72 -524
-162 -278 -137 -511 -350 -668 -610 -38 -63 -51 -74 -92 -74 -26 0 -65 42 -65
69 0 48 158 268 285 396 281 284 645 465 1045 520 131 18 337 18 474 0z
m-2239 -1394 c527 -107 977 -448 1203 -913 54 -111 116 -299 137 -413 25 -141
30 -368 11 -507 -53 -374 -216 -692 -494 -959 -131 -127 -246 -209 -400 -288
-279 -142 -539 -199 -860 -188 -184 6 -324 28 -473 77 l-90 30 -93 -81 c-207
-180 -428 -309 -596 -349 -77 -18 -160 -26 -160 -16 0 2 16 28 35 58 90 136
152 386 173 696 6 91 5 115 -6 125 -8 6 -40 43 -72 82 -239 292 -361 635 -363
1015 -1 346 85 627 284 926 89 134 271 319 409 416 197 139 470 255 690 292
52 9 106 18 120 20 14 2 117 3 230 2 164 -3 227 -8 315 -25z m1725 -120 c96
-69 94 -203 -3 -275 -21 -16 -43 -21 -87 -21 -66 0 -99 18 -137 75 -39 56 -25
158 27 205 50 46 149 54 200 16z m505 0 c47 -27 75 -76 75 -133 0 -150 -163
-221 -272 -119 -35 32 -41 45 -45 88 -9 91 25 150 104 179 44 16 94 10 138
-15z m468 18 c80 -22 137 -108 122 -182 -31 -143 -205 -185 -292 -71 -67 88
-22 222 86 254 36 11 41 11 84 -1z"/>
<path d="M2006 4470 c-629 -114 -1116 -576 -1248 -1183 -32 -146 -32 -446 0
-589 60 -273 178 -504 362 -709 l63 -71 -6 -156 c-7 -171 -24 -292 -63 -446
-14 -54 -23 -101 -20 -103 9 -9 160 77 240 137 43 32 130 104 191 159 l112
100 99 -35 c347 -125 699 -132 1044 -22 542 173 937 617 1047 1173 26 135 24
406 -5 541 -42 196 -108 358 -208 511 -230 354 -579 593 -999 685 -138 30
-462 34 -609 8z m393 -781 c116 -26 207 -94 258 -191 25 -48 28 -62 28 -158 0
-94 -3 -110 -27 -155 -44 -84 -85 -132 -164 -196 -149 -118 -173 -140 -176
-168 -3 -25 -6 -26 -69 -29 -76 -3 -79 0 -79 96 0 61 12 77 115 147 113 78
171 132 195 182 54 112 30 235 -58 293 -54 36 -93 44 -180 38 -66 -5 -154 -40
-224 -89 -43 -31 -63 -24 -97 30 l-30 50 34 30 c120 105 319 156 474 120z
m-102 -1229 c42 -25 65 -62 65 -103 0 -78 -67 -136 -140 -122 -52 10 -67 20
-86 59 -33 69 -16 128 48 167 40 24 73 24 113 -1z"/>
</g>
</svg>
