<?xml version="1.0" standalone="no"?>
<!DOCTYPE svg PUBLIC "-//W3C//DTD SVG 20010904//EN"
 "http://www.w3.org/TR/2001/REC-SVG-20010904/DTD/svg10.dtd">
<svg version="1.0" xmlns="http://www.w3.org/2000/svg"
 width="700.000000pt" height="700.000000pt" viewBox="0 0 700.000000 700.000000"
 preserveAspectRatio="xMidYMid meet">
<metadata>
Created by potrace 1.14, written by Peter Selinger 2001-2017
</metadata>
<g transform="translate(0.000000,700.000000) scale(0.100000,-0.100000)"
fill="#000000" stroke="none">
<path d="M4235 5504 c-169 -26 -324 -73 -459 -141 -163 -82 -288 -175 -421
-314 -93 -97 -215 -265 -215 -294 0 -9 13 -30 29 -46 27 -26 32 -28 56 -17 16
7 53 52 93 112 78 119 231 276 343 353 90 62 225 131 327 167 259 92 574 93
849 1 451 -150 772 -510 859 -963 23 -116 23 -328 0 -445 -42 -219 -134 -402
-287 -573 l-70 -79 4 -135 c6 -152 33 -300 77 -421 16 -44 24 -79 18 -79 -6 0
-52 20 -102 43 -100 48 -214 123 -349 229 -80 63 -90 68 -105 55 -42 -37 -310
-97 -433 -97 -67 0 -99 -20 -99 -60 0 -51 34 -64 143 -56 101 8 248 35 343 65
l62 19 63 -55 c145 -127 276 -206 419 -254 79 -26 115 -33 215 -37 l120 -5
-53 57 c-100 106 -151 266 -172 538 l-10 128 64 84 c194 255 286 529 286 857
0 364 -135 686 -399 949 -202 201 -440 330 -726 392 -88 19 -394 33 -470 22z"/>
<path d="M2370 4395 c-8 -2 -49 -9 -90 -15 -96 -16 -286 -78 -376 -123 -323
-163 -574 -453 -678 -785 -77 -246 -75 -533 5 -777 55 -164 143 -322 243 -432
l47 -53 -10 -142 c-18 -239 -54 -383 -122 -489 l-39 -59 33 0 c135 1 335 96
552 262 l110 84 47 -18 c120 -45 245 -62 443 -62 216 0 324 17 495 80 803 297
1126 1228 667 1926 -75 115 -252 295 -361 368 -168 112 -374 193 -571 225 -77
13 -346 19 -395 10z m430 -135 c246 -50 450 -154 621 -317 548 -521 474 -1394
-154 -1814 -148 -99 -268 -152 -446 -197 -98 -24 -122 -27 -311 -27 -226 0
-306 13 -453 75 l-70 29 -105 -97 c-57 -53 -132 -119 -165 -146 -59 -46 -155
-101 -163 -94 -2 2 4 24 13 48 32 94 54 228 60 372 l6 147 -56 69 c-213 264
-319 591 -288 885 48 445 323 809 750 993 93 41 241 80 349 93 108 14 295 5
412 -19z"/>
<path d="M2403 3651 c-65 -22 -95 -42 -111 -73 -12 -21 -11 -30 5 -64 11 -23
25 -39 36 -39 9 0 17 4 16 9 0 8 28 23 114 60 21 9 60 16 86 16 41 0 51 -4 65
-25 10 -14 28 -30 42 -35 17 -7 24 -17 24 -37 1 -16 7 -39 15 -53 8 -14 14
-36 14 -50 0 -36 -41 -103 -73 -118 -15 -8 -58 -45 -95 -83 -38 -38 -72 -69
-76 -69 -21 0 -44 -49 -45 -92 l0 -48 60 0 60 0 0 34 c0 24 7 38 23 49 41 27
185 174 201 205 9 18 27 48 41 68 36 54 35 148 -3 224 -22 44 -39 63 -92 97
l-65 43 -95 -1 c-63 0 -112 -6 -147 -18z"/>
<path d="M2448 2657 c-35 -28 -37 -75 -6 -117 17 -24 29 -30 59 -30 20 0 42 7
49 15 7 8 18 15 25 15 26 0 36 77 11 86 -8 3 -17 16 -20 30 -6 21 -12 24 -49
24 -28 -1 -51 -8 -69 -23z"/>
<path d="M4104 4280 c-67 -27 -95 -121 -52 -175 77 -99 224 -30 203 95 -10 62
-38 90 -88 89 -23 0 -51 -4 -63 -9z"/>
<path d="M4465 4276 c-36 -16 -59 -55 -59 -102 0 -68 83 -135 140 -114 43 16
83 59 90 95 17 94 -79 161 -171 121z"/>
<path d="M4900 4272 c-65 -32 -78 -137 -24 -187 75 -70 194 -12 194 94 0 91
-84 137 -170 93z"/>
</g>
</svg>
